<svg viewBox="0 0 36 27" fill="none" xmlns="http://www.w3.org/2000/svg">
  <rect width="36" height="27" fill="#00008B"/>
  <!-- Union Jack in canton -->
  <path d="M0 0V1.85L16 13.5L18 13.5V11.65L2 0H0Z" fill="white"/>
  <path d="M18 0V1.85L2 13.5H0V11.65L16 0H18Z" fill="white"/>
  <path d="M0 0V0.6L17 13.5H18V12.9L1 0H0Z" fill="#FF0000"/>
  <path d="M18 0V0.6L1 13.5H0V12.9L17 0H18Z" fill="#FF0000"/>
  <path d="M7.5 0V13.5H10.5V0H7.5Z" fill="white"/>
  <path d="M0 5.25V8.25H18V5.25H0Z" fill="white"/>
  <path d="M8.25 0V13.5H9.75V0H8.25Z" fill="#FF0000"/>
  <path d="M0 6V7.5H18V6H0Z" fill="#FF0000"/>
  <!-- Commonwealth Star (7-pointed) -->
  <polygon points="4.5,21 3.9,23 2,23 3.5,24.2 3,26.2 4.5,25 6,26.2 5.5,24.2 7,23 5.1,23" fill="white"/>
  <!-- Southern Cross -->
  <polygon points="27,4.5 26.6,5.8 25.2,5.8 26.3,6.6 25.9,7.9 27,7.1 28.1,7.9 27.7,6.6 28.8,5.8 27.4,5.8" fill="white"/>
  <polygon points="31,11 30.6,12.3 29.2,12.3 30.3,13.1 29.9,14.4 31,13.6 32.1,14.4 31.7,13.1 32.8,12.3 31.4,12.3" fill="white"/>
  <polygon points="27,17 26.6,18.3 25.2,18.3 26.3,19.1 25.9,20.4 27,19.6 28.1,20.4 27.7,19.1 28.8,18.3 27.4,18.3" fill="white"/>
  <polygon points="23,11.5 22.6,12.8 21.2,12.8 22.3,13.6 21.9,14.9 23,14.1 24.1,14.9 23.7,13.6 24.8,12.8 23.4,12.8" fill="white"/>
  <polygon points="28,11.5 27.8,12.2 27.1,12.2 27.6,12.7 27.4,13.4 28,13 28.6,13.4 28.4,12.7 28.9,12.2 28.2,12.2" fill="white"/>
</svg>
