<svg preserveAspectRatio="none" width="100%" height="100%" overflow="visible" style="display: block;" viewBox="0 0 59 44" fill="none" xmlns="http://www.w3.org/2000/svg">
<g id="Brazil">
<rect width="58.6667" height="44" rx="2.93333" fill="#2B9F5A"/>
<path id="Union" fill-rule="evenodd" clip-rule="evenodd" d="M29.3333 5.5L5.49998 22L29.3333 38.5L53.1666 22L29.3333 5.5Z" fill="#FFD018"/>
<path id="Ellipse 5" d="M40.3334 22C40.3334 28.0752 35.4086 33 29.3334 33C23.2583 33 18.3334 28.0752 18.3334 22C18.3334 15.9249 23.2583 11 29.3334 11C35.4086 11 40.3334 15.9249 40.3334 22Z" fill="#41479B"/>
<g id="Mask Group">
<mask id="mask0_0_4" style="mask-type:alpha" maskUnits="userSpaceOnUse" x="18" y="11" width="23" height="22">
<path id="Ellipse 6" d="M40.3334 22C40.3334 28.0752 35.4086 33 29.3334 33C23.2583 33 18.3334 28.0752 18.3334 22C18.3334 15.9249 23.2583 11 29.3334 11C35.4086 11 40.3334 15.9249 40.3334 22Z" fill="#41479B"/>
</mask>
<g mask="url(#mask0_0_4)">
<path id="Vector 5 (Stroke)" fill-rule="evenodd" clip-rule="evenodd" d="M16.6505 19.7001L16.5 18.3334C16.3492 16.9667 16.3494 16.9667 16.3497 16.9666L16.3587 16.9657L16.3801 16.9634L16.4579 16.9554C16.5249 16.9488 16.6219 16.9395 16.7464 16.9285C16.9954 16.9066 17.3547 16.8779 17.8045 16.8501C18.7035 16.7945 19.9679 16.7421 21.4383 16.7541C24.3573 16.7778 28.1801 17.0551 31.5772 18.1178C34.9507 19.173 37.8217 20.8044 39.8396 22.1596C40.8517 22.8394 41.6576 23.4554 42.2141 23.9047C42.4925 24.1294 42.7089 24.3129 42.8581 24.4423C42.9328 24.507 42.9906 24.5583 43.031 24.5944L43.0784 24.6372L43.0921 24.6498L43.0965 24.6538C43.0968 24.654 43.0992 24.6562 42.1667 25.6667C41.2342 26.6772 41.2344 26.6774 41.2346 26.6776L41.2283 26.6718L41.1963 26.643C41.1664 26.6162 41.1195 26.5746 41.0563 26.5198C40.9298 26.41 40.7381 26.2474 40.4865 26.0443C39.983 25.6378 39.2421 25.071 38.3063 24.4425C36.4283 23.1812 33.7993 21.6943 30.7562 20.7423C27.7367 19.7978 24.2261 19.5268 21.4159 19.504C20.0218 19.4927 18.8226 19.5424 17.9742 19.5949C17.5503 19.6211 17.215 19.6479 16.9877 19.6679C16.8741 19.6779 16.7876 19.6862 16.7306 19.6919L16.6676 19.6983L16.6505 19.7001Z" fill="#F5F8FB"/>
</g>
</g>
<path id="Ellipse 7" d="M25.6666 26.5833C25.6666 27.0896 25.2562 27.5 24.75 27.5C24.2437 27.5 23.8333 27.0896 23.8333 26.5833C23.8333 26.0771 24.2437 25.6667 24.75 25.6667C25.2562 25.6667 25.6666 26.0771 25.6666 26.5833Z" fill="#F5F8FB"/>
<path id="Ellipse 8" d="M31.1668 28.4167C31.1668 28.923 30.7564 29.3334 30.2501 29.3334C29.7438 29.3334 29.3334 28.923 29.3334 28.4167C29.3334 27.9104 29.7438 27.5 30.2501 27.5C30.7564 27.5 31.1668 27.9104 31.1668 28.4167Z" fill="#F5F8FB"/>
<path id="Ellipse 9" d="M34.8333 26.5833C34.8333 27.0896 34.4229 27.5 33.9166 27.5C33.4104 27.5 33 27.0896 33 26.5833C33 26.0771 33.4104 25.6667 33.9166 25.6667C34.4229 25.6667 34.8333 26.0771 34.8333 26.5833Z" fill="#F5F8FB"/>
</g>
</svg>
