<svg viewBox="0 0 36 27" fill="none" xmlns="http://www.w3.org/2000/svg">
  <rect width="36" height="27" fill="white"/>
  <rect width="9" height="27" fill="#D52B1E"/>
  <rect x="27" width="9" height="27" fill="#D52B1E"/>
  <!-- Maple Leaf (centered in white area x=9-27, y=0-27) -->
  <!-- Original path bounds approx: x=12.4-32.4 (width ~20), y=2.9-23.7 (height ~20.8) -->
  <!-- Center of original: x=22.4, y=13.3 -->
  <!-- Center of white area: x=18, y=13.5 -->
  <g transform="translate(18, 13.5) scale(0.9) translate(-22.4, -13.3)">
    <path d="M14.1 13.1L13.1 13.4L17.7 17.4C18 18.5 17.6 18.8 17.3 19.3L22.3 18.7L22.2 23.7L23.2 23.6L23 18.7L28.1 19.3C27.8 18.6 27.5 18.3 27.8 17.2L32.4 13.4L31.6 13.2C30.9 12.7 31.9 10.7 32.1 9.5C32.1 9.5 29.4 10.4 29.2 9.9L28.5 8.6L26.1 11.3C25.8 11.4 25.7 11.3 25.6 11.1L26.8 5.5L25 6.5C24.8 6.6 24.7 6.5 24.6 6.4L22.8 2.9L20.1 6.5C20 6.6 19.8 6.6 19.7 6.5L18 5.5L19 11.1C18.9 11.3 18.7 11.4 18.5 11.3L16 8.5C15.7 9 15.5 9.8 15.1 10C14.7 10.2 13.3 9.7 12.4 9.5C12.7 10.6 14 12.5 13.4 13.1H14.1Z" fill="#D52B1E"/>
  </g>
</svg>
